<svg xmlns="http://www.w3.org/2000/svg" width="44" height="49" viewBox="0 0 44 49" fill="none"><g clip-path="url(#clip0_1735_13612)"><path d="M0.0500031 26.5843H5.69982V28.1922H2.08811V30.7006H5.52272V32.3071H2.08811V36.7784H0.0500031V26.5843ZM18.894 26.5843H20.9314V36.7784H18.894V26.5843ZM40.3173 28.4547C39.6658 28.1659 38.9614 28.0151 38.2486 28.0119C37.5507 28.0119 36.6482 28.3203 36.6482 29.4292C36.6482 31.1995 41.1055 30.4503 41.1055 33.8709C41.1055 36.1078 39.3412 36.9516 37.29 36.9516C36.182 36.9516 35.6867 36.8083 34.6807 36.558L34.873 34.7202C35.5687 35.0977 36.3722 35.3465 37.172 35.3465C37.9447 35.3465 38.9785 34.9544 38.9785 34.0321C38.9785 32.0912 34.5225 32.8955 34.5225 29.5174C34.5225 27.2388 36.2825 26.4052 38.0723 26.4052C38.95 26.4052 39.7681 26.5246 40.5052 26.7735L40.3173 28.4547Z" fill="white"/><path fill-rule="evenodd" clip-rule="evenodd" d="M20.5016 23.2859C20.6415 23.1608 20.6823 23.067 20.7908 22.9375C20.9175 22.8001 20.9984 22.7317 21.1135 22.5942C21.2461 22.4408 21.2883 22.3295 21.4282 22.171C21.5061 22.0939 21.5615 22.0517 21.6402 21.9564C21.7407 21.8808 21.8004 21.8386 21.8791 21.7433C22.0058 21.6226 22.0226 21.5048 22.1435 21.4008C22.2287 21.3157 22.306 21.3157 22.3824 21.2401C22.424 21.1724 22.3955 21.0939 22.464 21.0546C22.4961 21.0415 22.542 21.0699 22.5675 21.027L22.7284 20.843C22.8151 20.7528 22.8734 20.7222 22.939 20.6299C23.0045 20.5644 23.0118 20.4902 23.1014 20.4452C23.1284 20.4168 23.1706 20.4168 23.1779 20.3921C23.2289 20.3259 23.2558 20.3324 23.3374 20.2575C23.3855 20.2146 23.3542 20.1484 23.3899 20.0975C23.4467 20.0408 23.4926 20.0364 23.5778 20.0182C23.612 20.0081 23.6033 19.9368 23.6543 19.9128C23.6761 19.8771 23.7046 19.8786 23.733 19.8604C23.8124 19.8066 23.8094 19.7411 23.8677 19.6742C23.9136 19.6219 23.9588 19.6073 23.9974 19.5419C24.0374 19.5099 24.0404 19.4713 24.0782 19.4342C24.1708 19.2721 24.3004 19.2539 24.4242 19.1186C24.5284 19.0226 24.5779 18.9586 24.6617 18.8488C24.7047 18.8161 24.7185 18.787 24.7688 18.7455C24.8096 18.6953 24.8679 18.6699 24.8992 18.6117C24.9604 18.5542 24.9691 18.5397 25.1396 18.4248C25.1571 18.4037 25.1469 18.3717 25.1643 18.347C25.1884 18.2866 25.2539 18.3091 25.2947 18.2655C25.3931 18.2102 25.4113 18.147 25.4827 18.0793C25.6021 17.9346 25.6721 17.8575 25.8003 17.7353C25.9139 17.6415 25.978 17.643 26.0916 17.4968C26.171 17.4197 26.19 17.3521 26.2468 17.2568C26.3532 17.1521 26.4304 17.1135 26.5396 17.019C26.6336 16.9121 26.6992 16.891 26.78 16.7528C26.8274 16.6641 26.9009 16.6575 26.965 16.5921C27.0578 16.5284 27.1455 16.4576 27.2273 16.3804C27.3307 16.2793 27.389 16.227 27.4662 16.115C27.5485 16.0153 27.6184 15.9739 27.6541 15.8502C27.6541 15.8081 27.7153 15.8662 27.7306 15.8502C27.8173 15.7513 27.9324 15.5811 28.0752 15.4226C28.1917 15.3121 28.2726 15.2691 28.3921 15.1586C28.4816 15.075 28.5261 15.0575 28.604 14.9455C28.6273 14.9215 28.5487 14.9048 28.58 14.8917C28.6812 14.7775 28.7293 14.7113 28.8459 14.6015C28.8728 14.5637 28.8932 14.5368 28.9231 14.4939C28.9653 14.4757 28.9872 14.467 29.028 14.4386C29.0535 14.4066 29.0666 14.3768 29.1096 14.3375C29.1336 14.3128 29.1591 14.3055 29.189 14.283C29.2247 14.2437 29.2115 14.1979 29.2654 14.1761C29.2946 14.1448 29.3383 14.1782 29.3711 14.147C29.3922 14.0982 29.4578 14.0168 29.535 13.9368C29.6202 13.8393 29.6909 13.7928 29.7994 13.6968C29.873 13.6415 29.9291 13.6051 30.0085 13.5368C30.058 13.5011 30.0267 13.4226 30.0893 13.379C30.1265 13.3164 30.1847 13.3251 30.2445 13.2982C30.2998 13.2451 30.404 13.1019 30.5133 13.0095C30.589 12.9302 30.6305 12.8975 30.6983 12.8233C30.7442 12.7913 30.7624 12.7651 30.8039 12.7135C30.8476 12.6779 30.8731 12.6495 30.9343 12.6066C31.0203 12.515 31.0909 12.4859 31.171 12.3957C31.3058 12.2699 31.3655 12.1921 31.4653 12.0255C31.477 11.995 31.528 12.0342 31.568 11.9964C31.6627 11.9157 31.764 11.8306 31.8849 11.7062C32.0015 11.6124 32.0583 11.5462 32.1792 11.4422C32.2761 11.3579 32.3387 11.3106 32.4444 11.2241C32.5762 11.107 32.6323 11.1106 32.7882 10.9346C32.8712 10.8219 32.9506 10.795 33.0533 10.6953C33.2296 10.5397 33.2893 10.4131 33.4758 10.2422C33.6404 10.0997 33.749 10.0284 33.9253 9.89896C33.9704 9.87569 33.9908 9.8306 34.0061 9.81896C34.0462 9.7986 34.0746 9.80732 34.1132 9.79496C34.1671 9.72223 34.1868 9.67787 34.2436 9.61023C34.3773 9.45144 34.5283 9.30801 34.6938 9.1826C34.8373 9.06405 34.9524 9.03205 35.093 8.89023C35.184 8.82623 35.2131 8.76223 35.3049 8.7055C35.3305 8.66731 35.3682 8.63886 35.412 8.62478C35.4849 8.55641 35.5315 8.51787 35.5956 8.43859C35.6553 8.39278 35.6808 8.35423 35.7267 8.30696C35.7748 8.23496 35.8105 8.20878 35.86 8.14769C35.8702 8.10696 35.8702 8.07496 35.9139 8.04368C35.927 8.01096 35.9627 8.01678 35.9926 7.98696C36.0348 7.95423 36.0334 7.90478 36.0734 7.88005C36.1244 7.84514 36.1703 7.85896 36.2045 7.83059C36.2767 7.78768 36.2628 7.7215 36.3109 7.66841C36.3692 7.61968 36.4289 7.62478 36.4974 7.58987C36.5644 7.51641 36.5761 7.44732 36.6314 7.3775C36.7137 7.29968 36.7866 7.28078 36.866 7.21677C37.0153 7.10841 37.0896 7.03932 37.212 6.92587C37.3271 6.82041 37.4079 6.78477 37.499 6.65896C37.5318 6.60877 37.5347 6.56368 37.5828 6.49968C37.6702 6.41023 37.7649 6.41023 37.8734 6.34041C37.9987 6.24514 38.0315 6.19059 38.1888 6.07496C38.2646 6.0335 38.2857 5.96659 38.3768 5.91641C38.4124 5.89968 38.4481 5.91423 38.4838 5.88877C38.5195 5.84877 38.5079 5.80368 38.5305 5.75496C38.6091 5.66332 38.6914 5.66041 38.7992 5.59932L38.9333 5.4895C39.0287 5.42477 39.0768 5.37386 39.1722 5.30186C39.2301 5.28683 39.2843 5.26037 39.3317 5.22405C39.3645 5.22186 39.4097 5.16659 39.4614 5.11932C39.4934 5.08732 39.551 5.0735 39.5947 5.03932C39.7229 4.91205 39.7528 4.8895 39.8591 4.7455C39.8934 4.7135 39.9094 4.61677 39.9363 4.58405C39.9633 4.54477 40.1141 4.44586 40.1483 4.39714C40.3319 4.19423 40.5664 4.15423 40.6262 4.05386C40.6801 4.00223 40.6815 3.94914 40.7602 3.91932C40.8826 3.86332 40.9496 3.78114 41.0756 3.70841C41.1681 3.64004 41.2213 3.6095 41.316 3.54986C41.4114 3.47786 41.4661 3.43132 41.5527 3.36223C41.705 3.24659 41.7844 3.18477 41.9235 3.07204C42.016 3.01677 42.0634 2.98186 42.1617 2.90986C42.2593 2.85459 42.3263 2.82768 42.4261 2.7535C42.5143 2.69968 42.5274 2.62768 42.6381 2.59204C42.7714 2.5775 42.7649 2.4815 42.9594 2.45677C42.9834 2.45968 43.0264 2.41313 43.038 2.35204C43.0235 2.2895 43.0992 2.31495 43.1415 2.27204C43.1648 2.24513 43.1684 2.21968 43.1961 2.18986C43.2085 2.15277 43.2231 2.13895 43.2187 2.1135C43.2383 2.06768 43.2245 2.04513 43.2187 2.00513C43.2245 1.96222 43.2471 1.93313 43.2471 1.87277C43.2311 1.83641 43.2231 1.80222 43.1961 1.76659C43.1531 1.74404 43.116 1.76513 43.089 1.73968C43.038 1.70259 43.0592 1.64731 43.038 1.60804C43.0003 1.56421 42.9536 1.52899 42.9011 1.50477C42.8399 1.46259 42.7933 1.46259 42.7175 1.42404C42.6847 1.39641 42.668 1.37386 42.6381 1.34041C42.5755 1.3135 42.5383 1.3135 42.4786 1.28804C42.4458 1.24804 42.432 1.22113 42.4021 1.18404C42.3589 1.16924 42.3137 1.16067 42.2681 1.15859C42.1741 1.14695 42.1355 1.2175 42.0546 1.2095C42.0095 1.21531 41.9796 1.2015 41.9519 1.2095C41.874 1.2015 41.8368 1.2095 41.7931 1.23713C41.7443 1.25095 41.7319 1.27786 41.6875 1.28804C41.6409 1.31931 41.6008 1.30768 41.5527 1.34041C41.5025 1.34768 41.4872 1.37386 41.45 1.39641L41.3379 1.42404C41.2038 1.47495 41.1259 1.50041 40.9991 1.55568C40.8593 1.61531 40.7959 1.6655 40.6801 1.71422C40.6189 1.75132 40.5919 1.77095 40.5453 1.7935C40.4996 1.81642 40.4557 1.84293 40.4142 1.87277C40.192 1.97677 40.0798 2.04513 39.8875 2.16222C39.6705 2.28368 39.5525 2.34913 39.3529 2.48513C39.0768 2.63859 38.9289 2.74259 38.6689 2.90986C38.572 2.97532 38.5079 2.99568 38.4285 3.07204C38.0978 3.33313 37.9419 3.3695 37.6359 3.57532C37.4902 3.6975 37.4079 3.77677 37.2346 3.87204C37.1573 3.93095 37.102 3.95132 37.027 4.00223C36.8958 4.09023 36.8405 4.15277 36.7349 4.23932C36.6569 4.29386 36.6314 4.34186 36.5462 4.37241C36.4974 4.39714 36.458 4.39059 36.418 4.42695C36.3553 4.45386 36.3481 4.49968 36.3109 4.53604C36.2402 4.59423 36.1929 4.60223 36.1244 4.6415C36.0406 4.71568 35.9423 4.7855 35.9139 4.82695C35.8826 4.88005 35.8345 4.85459 35.7835 4.88005C35.6371 4.93968 35.5854 5.03277 35.4645 5.11932C35.3602 5.20174 35.2541 5.28176 35.1461 5.35932C35.0179 5.46405 34.8853 5.51496 34.8271 5.62623C34.7848 5.67714 34.7193 5.62914 34.669 5.64877C34.6326 5.68805 34.6326 5.72659 34.5911 5.75496C34.5481 5.80368 34.5087 5.81096 34.4585 5.83786C34.3361 5.92296 34.2807 5.97605 34.1671 6.04805C34.0593 6.15277 33.9952 6.18332 33.8772 6.31496C33.8582 6.3295 33.8145 6.27132 33.7927 6.28732C33.7075 6.41241 33.655 6.41459 33.5581 6.47423C33.4984 6.53677 33.4554 6.56223 33.3986 6.60587C33.3549 6.65168 33.3374 6.67205 33.2937 6.71423C33.2012 6.79641 33.1211 6.81532 33.0278 6.89677C32.8727 7.0015 32.8159 7.09605 32.6804 7.19132C32.5667 7.28078 32.4866 7.29968 32.3904 7.3775C32.3074 7.43278 32.2703 7.47423 32.2083 7.53532C32.1224 7.58768 32.0728 7.61023 31.9964 7.66841C31.8164 7.80223 31.7188 7.88441 31.5447 8.01459C31.477 8.06768 31.4355 8.08878 31.3888 8.14769C31.1922 8.2735 31.0698 8.43859 30.9117 8.49314C30.8877 8.51059 30.9022 8.54914 30.8862 8.57168C30.8476 8.62478 30.7799 8.60005 30.7515 8.6495C30.7085 8.7135 30.6291 8.7535 30.5395 8.8095C30.4564 8.88732 30.4084 8.93605 30.2998 8.99641C30.2709 9.00962 30.2445 9.02784 30.2219 9.05023C30.125 9.0975 30.0966 9.16296 30.0085 9.23714C29.9414 9.29969 29.8679 9.30478 29.8234 9.39714C29.8023 9.42041 29.8023 9.44005 29.7724 9.47569C29.7367 9.51423 29.6668 9.46696 29.637 9.52514C29.516 9.6495 29.3893 9.75496 29.2654 9.81896C29.2203 9.85169 29.2115 9.88732 29.189 9.92587C29.1474 9.94332 29.1096 9.93241 29.0826 9.97896C28.9202 10.1673 28.8065 10.203 28.631 10.3521C28.502 10.4691 28.4292 10.5397 28.2872 10.643C28.1815 10.7368 28.1247 10.7877 27.9965 10.8546C27.9513 10.9019 27.8858 10.9186 27.8647 10.9651C27.7918 11.0648 27.7736 11.0604 27.7066 11.1208C27.5726 11.2524 27.4589 11.2822 27.3351 11.4117C27.2979 11.4401 27.287 11.4611 27.2542 11.4953C27.2113 11.5179 27.177 11.515 27.1246 11.5462C27.0903 11.5862 27.0845 11.619 27.0437 11.6531C27 11.6993 26.9465 11.7351 26.8871 11.7579C26.7589 11.8691 26.6635 11.9099 26.568 12.0255C26.5272 12.0735 26.5156 12.0997 26.4872 12.1288C26.402 12.2204 26.3233 12.2204 26.2242 12.2917C26.0705 12.403 26.0275 12.5251 25.8782 12.635C25.7675 12.7171 25.6735 12.7135 25.5868 12.8233C25.5555 12.8568 25.5635 12.9099 25.5067 12.955C25.2794 13.075 25.1571 13.2379 24.924 13.4313C24.7404 13.5877 24.626 13.6742 24.4497 13.8306C24.3077 13.955 24.2392 14.0306 24.1052 14.147C23.9464 14.2844 23.832 14.3324 23.6812 14.467C23.5523 14.5841 23.5108 14.6713 23.3899 14.7891C23.2901 14.8459 23.2238 14.8619 23.1269 14.9455C23.0468 15.011 23.014 15.0677 22.939 15.1586C22.7838 15.3004 22.6855 15.3819 22.5136 15.531C22.3781 15.6604 22.3059 15.7491 22.1435 15.8502C22.0998 15.8917 22.0685 15.8997 22.0372 15.9281C21.9745 15.9906 22.0058 16.059 21.9315 16.0873C21.7268 16.1979 21.7538 16.2044 21.6671 16.2982C21.6525 16.3179 21.6103 16.2917 21.5884 16.3273C21.5207 16.4371 21.5018 16.4582 21.4282 16.5382C21.3196 16.675 21.2206 16.7179 21.0851 16.8291C20.8945 17.0022 20.7089 17.1807 20.5286 17.3644C20.3698 17.5033 20.2853 17.5826 20.1286 17.7353C20.0551 17.8168 20.0055 17.8626 19.9181 17.9484C19.7848 18.0793 19.7032 18.1557 19.5758 18.2939C19.4607 18.3819 19.406 18.443 19.3121 18.531C19.1875 18.6415 19.1161 18.6895 18.9937 18.7964C18.8808 18.9053 18.7743 19.0207 18.6747 19.1419C18.5625 19.2379 18.5071 19.299 18.4117 19.4088C18.3236 19.491 18.2806 19.5368 18.1983 19.619C18.0985 19.7215 18.0322 19.7921 17.9324 19.8604C17.8909 19.899 17.9098 19.9441 17.8814 19.9644C17.8486 20.0255 17.8115 20.0262 17.7743 20.0706C17.6877 20.1164 17.6906 20.155 17.5908 20.2335C17.5492 20.243 17.5769 20.2888 17.5354 20.3099C17.5208 20.331 17.5026 20.3244 17.4815 20.3099L17.456 20.3382L20.5016 23.2859Z" fill="white"/><path d="M12.8502 31.5711C12.8239 31.5645 12.8239 31.539 12.8502 31.5172C12.872 31.505 12.8909 31.4751 12.9309 31.4393C12.95 31.4262 12.9426 31.5289 12.9033 31.5456C12.8836 31.5689 12.864 31.5987 12.8502 31.5711ZM13.0103 31.3587C13.0024 31.3769 13.0461 31.3608 13.0607 31.3339C13.0746 31.3275 13.0774 31.2802 13.0607 31.2802C13.033 31.2802 13.0446 31.307 13.0351 31.3339C13.0229 31.3339 13.0037 31.3339 13.0103 31.3587Z" fill="white"/><path fill-rule="evenodd" clip-rule="evenodd" d="M17.4561 20.3383C17.4189 20.3529 17.4189 20.4023 17.3774 20.4453C17.3052 20.5378 17.2477 20.6299 17.1668 20.6582C17.1267 20.6722 17.1239 20.7319 17.0874 20.7629C16.9724 20.8671 16.8725 20.9834 16.7145 21.1324C16.5295 21.3216 16.4143 21.4307 16.211 21.6379C16.0669 21.803 15.9963 21.9092 15.8425 22.091C15.6232 22.3173 15.4113 22.5318 15.2591 22.6723C15.2262 22.7107 15.2547 22.7718 15.2066 22.8089C15.0601 22.8714 14.9902 22.9973 14.8622 23.1266C14.7136 23.286 14.6253 23.3666 14.4951 23.523C14.3893 23.6599 14.3442 23.7449 14.2552 23.8714C14.0951 24.0613 13.9829 24.1472 13.8299 24.35C13.7979 24.3856 13.7862 24.4198 13.7505 24.4532C13.6877 24.5303 13.644 24.5558 13.5895 24.6125C13.4664 24.7289 13.4094 24.8075 13.2996 24.9311C13.1794 25.0759 13.0687 25.1807 13.0103 25.3056C12.9834 25.3275 12.9456 25.2976 12.9309 25.3311C12.8473 25.4805 12.7498 25.6217 12.6397 25.7528C12.5587 25.8199 12.5056 25.8467 12.4246 25.918C12.3591 26.0119 12.3294 26.067 12.2666 26.1566C12.1923 26.2351 12.1711 26.2962 12.1079 26.3681C12.0802 26.3736 12.0531 26.3816 12.0269 26.3922C11.9425 26.4859 11.9468 26.5725 11.8696 26.6598C11.7844 26.7615 11.7152 26.782 11.6308 26.8729C11.5454 26.9675 11.5141 27.0431 11.4472 27.1382C11.2811 27.3586 11.1797 27.4721 11.026 27.6664C10.8703 27.8481 10.7829 27.9434 10.6248 28.1195C10.369 28.4562 10.2218 28.7231 9.96328 28.9973C9.86275 29.0968 9.82412 29.1739 9.72447 29.2888C9.63181 29.4438 9.59475 29.5412 9.48688 29.6613C9.43601 29.7136 9.41118 29.7346 9.37989 29.766C9.29317 29.8714 9.23775 30.0161 9.19475 30.0597C9.17814 30.0758 9.12639 30.043 9.11608 30.0859C9.07394 30.2009 9.05716 30.2161 9.01275 30.2997C8.92744 30.4504 8.78111 30.5005 8.74684 30.6693C8.72709 30.763 8.63181 30.7804 8.55751 30.8539C8.44894 31.0046 8.40227 31.0911 8.29667 31.2292C8.1888 31.398 8.12761 31.4976 8.00384 31.6525C7.92814 31.782 7.83199 31.8925 7.79265 31.9733C7.78303 31.9907 7.69492 32.0845 7.68408 32.1056C7.62429 32.2489 7.55734 32.3231 7.50192 32.395C7.40646 32.5114 7.23024 32.7675 7.15576 32.8481C7.08925 32.936 7.03622 33.0333 6.99842 33.1368C7.00366 33.171 6.95856 33.171 6.92062 33.1965C6.76765 33.3908 6.58636 33.8161 6.49457 33.9086C6.47482 33.9174 6.46608 33.9174 6.46975 33.9369C6.38531 34.0809 6.32552 34.1216 6.25856 34.2525C6.15944 34.3878 6.08583 34.4555 6.04353 34.6009C6.02832 34.6431 6.03776 34.6728 6.01818 34.7042C5.99842 34.7173 5.96643 34.6999 5.96643 34.7339C5.89213 34.8772 5.84615 34.9383 5.77919 35.0795C5.68444 35.2074 5.62115 35.2823 5.54318 35.4242C5.44335 35.5653 5.33916 35.7267 5.30349 35.7965C5.30926 35.8204 5.27727 35.811 5.27727 35.8204C5.24965 35.8519 5.26328 35.8772 5.24965 35.9033C5.23059 36.0351 5.09003 36.0554 5.06311 36.1929C5.06311 36.2271 5.06975 36.2481 5.06311 36.3004C4.97797 36.4118 4.85122 36.5478 4.82709 36.5907C4.81398 36.646 4.85559 36.7012 4.7979 36.7237C4.79003 36.7499 4.76818 36.7485 4.74633 36.7499C4.71206 36.7921 4.7236 36.8277 4.69598 36.8562C4.6764 36.9274 4.63916 36.9515 4.61381 37.0183C4.59685 37.0526 4.59982 37.078 4.58811 37.1231C4.55681 37.1646 4.52989 37.1856 4.50874 37.2301C4.4243 37.3304 4.40314 37.4299 4.32377 37.494C4.30926 37.5268 4.37185 37.5711 4.35209 37.6045C4.27342 37.6504 4.22465 37.7172 4.16643 37.8148C4.15105 37.8445 4.14161 37.8679 4.11328 37.8933C4.10594 37.9485 4.11905 37.9783 4.08636 38.0256C4.07605 38.0576 4.05647 38.0707 4.03304 38.1049C3.97185 38.1827 3.92972 38.2314 3.89842 38.3178C3.88811 38.3761 3.90926 38.4147 3.8729 38.4526C3.85612 38.4802 3.82692 38.4838 3.81818 38.507C3.77447 38.561 3.81101 38.606 3.7687 38.6641C3.6208 38.8423 3.57342 39.0722 3.55524 39.0904C3.47884 39.2213 3.41538 39.3253 3.3972 39.3819C3.36084 39.4089 3.37832 39.4459 3.3687 39.4866C3.33234 39.6074 3.21363 39.6432 3.21136 39.7784C3.20787 39.8053 3.2479 39.8423 3.21136 39.8591C3.11014 39.9411 3.11014 39.998 3.05052 40.0977C3.04458 40.1514 3.07675 40.1856 3.07884 40.2286C3.05699 40.3035 2.96661 40.3391 2.99947 40.3914C3.01766 40.4103 3.04178 40.4403 3.05052 40.4199C3.08986 40.342 3.08689 40.3448 3.13356 40.3122C3.15542 40.278 3.18601 40.275 3.21136 40.2584C3.2479 40.2213 3.27482 40.2598 3.2937 40.1783C3.28863 40.1558 3.34912 40.1616 3.36888 40.1259C3.39143 40.1064 3.38182 40.0809 3.3972 40.0409C3.43286 39.998 3.50717 40.0511 3.55524 40.0183C3.63391 39.9827 3.63391 39.91 3.68776 39.8591C3.725 39.8489 3.74318 39.846 3.7687 39.8352C3.81311 39.7849 3.81678 39.798 3.8451 39.6983C3.85612 39.6758 3.89842 39.7043 3.89842 39.6714C3.91223 39.6117 3.98793 39.5789 4.00542 39.4868C4.01416 39.4728 4.03601 39.4911 4.05786 39.4868C4.07325 39.4744 4.09283 39.4089 4.08636 39.4358C4.09283 39.4489 4.07902 39.4089 4.08636 39.4089C4.09423 39.3775 4.11905 39.3848 4.13723 39.382C4.23933 39.2824 4.26905 39.1333 4.37622 39.0082C4.41119 38.968 4.43077 38.9528 4.45699 38.902C4.52989 38.8263 4.52115 38.7397 4.61363 38.6641C4.63636 38.6373 4.65297 38.6147 4.69598 38.6118C4.70402 38.598 4.71486 38.6009 4.71923 38.5835C4.76014 38.5776 4.72884 38.5369 4.74633 38.507C4.78269 38.4657 4.83007 38.4926 4.88094 38.4802C4.91517 38.4674 4.95061 38.4582 4.98671 38.4526C5.02744 38.4161 5.02744 38.3747 5.06311 38.3463C5.14038 38.2838 5.20734 38.3063 5.27727 38.267C5.32622 38.2424 5.3451 38.2314 5.38216 38.2075C5.40602 38.1802 5.43262 38.1553 5.46153 38.1333C5.47832 38.1216 5.49213 38.1122 5.51555 38.081C5.54318 38.0693 5.56503 38.0707 5.5687 38.0511C5.59702 38.0227 5.57814 37.9914 5.59265 37.9726C5.62762 37.9586 5.64807 37.9696 5.67657 37.9485C5.70996 37.9413 5.72534 37.9202 5.75367 37.8933C5.77639 37.841 5.73758 37.7696 5.77919 37.7609C5.80314 37.75 5.83811 37.7712 5.83234 37.7609C5.80314 37.7129 5.90367 37.5936 5.91398 37.6547C5.90157 37.6699 5.87534 37.598 5.88618 37.5762C5.90961 37.5762 5.93146 37.598 5.93951 37.5762C5.99405 37.5057 6.02255 37.4387 6.07132 37.3631C6.11713 37.3165 6.13461 37.2955 6.17622 37.2569C6.21555 37.206 6.24545 37.1768 6.28251 37.1231C6.35314 37.0852 6.39475 37.0707 6.46957 37.0183C6.54999 36.9726 6.61468 36.963 6.68024 36.886C6.75891 36.8351 6.77569 36.7797 6.83758 36.7237C6.88566 36.6357 6.9236 36.6008 6.97097 36.5397C7.12464 36.3493 7.18723 36.2736 7.34248 36.062C7.34527 36.0292 7.37517 36.0351 7.39562 36.0096C7.42692 35.9346 7.55576 35.7827 7.60611 35.662C7.60384 35.6431 7.63234 35.662 7.66066 35.662C7.68251 35.6344 7.66066 35.5892 7.68408 35.5579C7.72255 35.518 7.79248 35.5639 7.818 35.5056C7.83706 35.5028 7.82901 35.4809 7.8458 35.4773C7.86538 35.4569 7.90174 35.4954 7.90034 35.4773C7.95576 35.3645 8.01258 35.3659 8.00384 35.2656C8.01695 35.2423 8.06275 35.2692 8.08251 35.2656C8.09772 35.2394 8.08898 35.2169 8.08251 35.1856C8.1131 35.1528 8.16188 35.1615 8.1888 35.1333C8.22307 35.1036 8.2194 35.0692 8.24352 35.0228C8.2944 34.995 8.33303 34.995 8.37394 34.9442C8.39789 34.9303 8.39282 34.8962 8.42849 34.8678C8.45174 34.8561 8.48024 34.8707 8.50786 34.8678C8.59457 34.8234 8.62447 34.7784 8.6937 34.7339C8.77307 34.6533 8.78985 34.5435 8.90489 34.5463C8.91503 34.534 8.93251 34.5478 8.95594 34.5463C8.97989 34.5209 8.94719 34.4773 8.98426 34.4431C9.00104 34.4197 9.03233 34.4227 9.06293 34.4146C9.12132 34.4059 9.14964 34.3878 9.19475 34.4146C9.21957 34.4119 9.25017 34.4146 9.24807 34.4431C9.26625 34.4801 9.22621 34.4925 9.19475 34.5209C9.18688 34.5281 9.18093 34.5253 9.1694 34.5209C9.13216 34.5463 9.14964 34.5951 9.11608 34.6264C9.09282 34.6473 9.05419 34.6386 9.0374 34.6801C9.01712 34.6999 9.05716 34.7252 9.0374 34.758C8.96677 34.8648 8.8867 34.9383 8.87656 34.9681C8.88163 34.998 8.91363 35.0228 8.90489 35.0228C8.80873 35.0795 8.83496 35.1078 8.77307 35.1572C8.76433 35.1718 8.74387 35.1732 8.71835 35.1856C8.68198 35.2394 8.63758 35.2924 8.66677 35.3462C8.67394 35.3602 8.63321 35.3659 8.61433 35.3719C8.57779 35.4045 8.55524 35.4242 8.53338 35.4495C8.49714 35.4876 8.47 35.5334 8.45401 35.5834C8.43426 35.6358 8.30471 35.6998 8.29667 35.771C8.30978 35.8204 8.37394 35.7798 8.42849 35.771C8.45698 35.7593 8.48391 35.7536 8.50786 35.7414C8.54807 35.7143 8.54947 35.6817 8.58583 35.662C8.61433 35.6415 8.63303 35.622 8.66677 35.6344C8.71695 35.6415 8.6937 35.7412 8.74684 35.7187C8.80873 35.6969 8.80873 35.6192 8.85104 35.5581C8.91503 35.467 8.95594 35.4837 9.01275 35.3464C9.02726 35.302 9.08985 35.3347 9.11608 35.2881C9.1409 35.2656 9.11608 35.2313 9.14387 35.1856C9.16642 35.1528 9.21957 35.1675 9.24807 35.1333C9.30401 35.0809 9.29894 35.0292 9.32814 34.9681C9.38268 34.899 9.42289 34.8845 9.48688 34.8133C9.50506 34.7812 9.53286 34.8053 9.5416 34.7892C9.58531 34.7653 9.5444 34.6925 9.59038 34.6801C9.69457 34.6744 9.73531 34.6744 9.83146 34.6264C9.87079 34.6073 9.92324 34.4801 9.9888 34.39C10.0601 34.3136 10.096 34.2736 10.1491 34.2031C10.2262 34.1289 10.2453 34.0889 10.3371 34.0155C10.3559 34.0095 10.3385 33.9696 10.3596 33.9369C10.3727 33.8816 10.4215 33.8772 10.468 33.8292C10.5264 33.7652 10.5409 33.7041 10.6248 33.6425C10.6669 33.6067 10.7093 33.6067 10.7587 33.5644C10.8811 33.4903 10.9045 33.3965 10.9963 33.2976C11.0815 33.1965 11.1544 33.1143 11.2082 33.0584C11.2425 33.03 11.2454 32.979 11.2869 32.9267C11.3262 32.8766 11.3823 32.8766 11.4187 32.8212C11.4785 32.7631 11.4755 32.7092 11.5259 32.6612C11.5767 32.5587 11.6446 32.5543 11.7115 32.4482C11.743 32.422 11.7815 32.4859 11.8194 32.4795C11.8696 32.4561 11.8325 32.3828 11.8696 32.3412C11.9054 32.3295 11.936 32.3355 11.976 32.3173C12.0117 32.2946 12.0269 32.2815 12.0547 32.2677C12.0918 32.2293 12.1173 32.2161 12.1334 32.1834C12.1617 32.1325 12.0977 32.0599 12.1617 32.0518C12.2601 32.0059 12.2725 31.934 12.3984 31.8626C12.4182 31.8511 12.4524 31.8897 12.4787 31.8626C12.5056 31.8598 12.5129 31.8387 12.5318 31.8089C12.526 31.7884 12.5173 31.7746 12.5318 31.7572C12.5318 31.7179 12.5587 31.7092 12.585 31.6793C12.6206 31.6568 12.6579 31.6568 12.6636 31.6286C12.6921 31.5842 12.6776 31.5572 12.6921 31.5172C12.7034 31.4949 12.7219 31.477 12.7446 31.4664C12.8014 31.398 12.8757 31.4219 12.9309 31.3587C12.9439 31.344 12.9527 31.3262 12.9565 31.307C12.9739 31.2802 12.9355 31.2547 12.9565 31.2292C12.9774 31.1637 13.0491 31.2133 13.1145 31.2009C13.1991 31.174 13.2217 31.1325 13.328 31.0925C13.3636 31.0831 13.3162 31.0431 13.328 31.0147C13.3477 30.9763 13.3818 30.9653 13.4059 30.9326C13.4816 30.8628 13.5336 30.8153 13.5895 30.7494C13.6288 30.7166 13.564 30.678 13.5895 30.6424C13.6122 30.6284 13.644 30.6481 13.6711 30.6424C13.7009 30.6213 13.7351 30.6139 13.7505 30.59C13.7432 30.5499 13.7162 30.5376 13.7243 30.5115C13.7351 30.4678 13.8131 30.5143 13.8299 30.483C13.8771 30.3413 13.9334 30.3413 14.0411 30.2161C14.0542 30.1952 14.0098 30.1638 14.0148 30.1383C14.044 30.0816 14.1147 30.1311 14.1475 30.1114C14.2 30.0627 14.2801 29.9093 14.3836 29.8169C14.4519 29.766 14.5087 29.766 14.5685 29.7136C14.586 29.6808 14.589 29.6599 14.6224 29.6337C14.6253 29.6082 14.6384 29.5958 14.6509 29.5783C14.6799 29.5469 14.6953 29.5361 14.7302 29.5005C14.8294 29.3951 14.8694 29.3158 14.9676 29.182C15.01 29.1397 15.0113 29.083 15.0725 29.0476C15.1141 29.043 15.2023 29.086 15.1781 29.0476C15.1353 28.9762 15.2991 28.8983 15.3633 28.702C15.3843 28.6597 15.4252 28.6932 15.447 28.6794C15.5052 28.6351 15.4921 28.5812 15.525 28.5171C15.5592 28.4962 15.5694 28.4693 15.6037 28.4394C15.6458 28.4293 15.6844 28.4633 15.7086 28.4394C15.747 28.408 15.6932 28.3586 15.7086 28.3295C15.7412 28.2984 15.7769 28.3129 15.8141 28.2789C15.8652 28.2504 15.8309 28.1637 15.8921 28.1492C15.9161 28.1267 15.9306 28.131 15.9474 28.1195C16.0007 28.0998 15.9832 28.0416 16.029 27.9863C16.0587 27.942 16.1157 27.9362 16.158 27.8823C16.1725 27.8402 16.1638 27.809 16.1863 27.7776C16.2266 27.742 16.2905 27.7776 16.3175 27.7507C16.3517 27.7107 16.3472 27.6809 16.3699 27.6425C16.3968 27.566 16.4544 27.5726 16.4801 27.4533C16.4923 27.4154 16.5535 27.4663 16.582 27.4533C16.6446 27.4154 16.6335 27.3559 16.662 27.2976C16.7327 27.2119 16.7844 27.1696 16.8753 27.083C16.9323 27.0401 17.0023 27.0401 17.0327 26.9507C17.0655 26.8743 17.1311 26.7884 17.2208 26.6598C17.2339 26.6315 17.3278 26.6184 17.3774 26.5812C17.3921 26.5603 17.4098 26.5417 17.4299 26.5259C17.4531 26.4779 17.4189 26.4278 17.4561 26.3922C17.4844 26.3754 17.5113 26.387 17.5355 26.3922C17.5995 26.3681 17.6731 26.2147 17.7488 26.0983C17.7685 26.0445 17.8297 26.0895 17.8815 26.0489C17.9295 26.0249 17.9238 25.966 17.9594 25.918C18.0162 25.8539 18.0519 25.8132 18.1203 25.779C18.186 25.7347 18.183 25.5856 18.2776 25.5172C18.3119 25.4708 18.3535 25.5078 18.3848 25.4352C18.4533 25.2744 18.5488 25.3056 18.6208 25.1725C18.6564 25.0911 18.8372 24.982 18.9652 24.7717C18.9792 24.7391 19.0236 24.7616 19.0718 24.7448C19.1133 24.7035 19.0972 24.6408 19.1264 24.5884C19.1914 24.4872 19.2821 24.4049 19.3893 24.35C19.4374 24.2961 19.4956 24.2961 19.5502 24.243C19.5699 24.1819 19.54 24.1282 19.5759 24.0816C19.621 24.0561 19.661 24.0744 19.7077 24.0561C19.7564 24.0133 19.7507 23.9536 19.8133 23.9208C19.8372 23.8925 19.8627 23.8925 19.8897 23.8714C19.9327 23.83 19.9313 23.7885 19.9743 23.7375C20.058 23.6002 20.1613 23.5602 20.2897 23.4452C20.3736 23.3783 20.4348 23.35 20.5016 23.286L17.4561 20.3383Z" fill="white"/><path fill-rule="evenodd" clip-rule="evenodd" d="M27.3351 28.7841C27.3635 28.7645 27.3948 28.7703 27.413 28.7303C27.4772 28.5812 27.5901 28.4721 27.6782 28.2787C27.7408 28.195 27.7379 28.1194 27.8086 28.0401C27.8385 28.0118 27.8618 28.0089 27.8916 27.9863C27.9652 27.8954 27.9397 27.7987 28.0206 27.7209C28.0468 27.6976 28.089 27.7063 28.1021 27.6663C28.116 27.5572 28.1888 27.4845 28.2617 27.3754C28.328 27.259 28.3862 27.2118 28.4489 27.1129C28.4915 27.0465 28.5265 26.9755 28.5531 26.9012C28.5684 26.8554 28.6055 26.8656 28.631 26.8438C28.6856 26.7958 28.6681 26.7434 28.7126 26.6823C28.8277 26.5049 28.8306 26.4532 28.9515 26.3398C28.9799 26.2961 29.0112 26.283 29.028 26.235C29.0564 26.2023 29.0397 26.1623 29.0535 26.1296C29.1773 25.9849 29.2698 25.918 29.35 25.779C29.3565 25.7645 29.3201 25.7361 29.35 25.7005C29.4578 25.5914 29.4607 25.499 29.5605 25.3856C29.6311 25.2889 29.7084 25.2576 29.7725 25.1441C29.8577 25.0016 30.0187 24.7856 30.1964 24.5601C30.2663 24.4496 30.3115 24.3841 30.38 24.2685C30.5351 24.0685 30.6029 23.9492 30.7515 23.7645C30.8695 23.5798 30.9503 23.4874 31.0698 23.3099C31.0909 23.2983 31.0756 23.2699 31.0938 23.2576C31.2104 23.1267 31.3459 22.9521 31.4894 22.7245C31.5149 22.6649 31.5549 22.6649 31.5979 22.6227C31.6329 22.5754 31.622 22.547 31.6788 22.4874C31.7101 22.4736 31.6759 22.4409 31.7043 22.4096C31.7101 22.3812 31.7356 22.3812 31.7553 22.3558C31.8354 22.2889 31.8354 22.2161 31.9133 22.171C31.9417 22.1325 31.9672 22.1252 31.9964 22.091C32.0612 22.0416 32.0729 21.9805 32.1253 21.9012C32.2266 21.7507 32.3191 21.6896 32.4203 21.5318C32.4538 21.4779 32.464 21.4409 32.4983 21.4009C32.5527 21.315 32.625 21.2418 32.7102 21.1863C32.7314 21.155 32.6877 21.1114 32.7102 21.0801C32.7853 21.0176 32.837 20.9194 32.9208 20.843C32.9703 20.7841 33.0031 20.7674 33.0533 20.7078C33.1699 20.5958 33.2107 20.4859 33.3178 20.3623C33.3236 20.3325 33.3549 20.347 33.3717 20.3383C33.4103 20.2998 33.3848 20.2576 33.3986 20.2038C33.4256 20.1536 33.4729 20.1419 33.5057 20.0976C33.5727 20.0263 33.5749 19.9645 33.6361 19.9129C33.6732 19.8918 33.6936 19.8874 33.7148 19.8605C33.7869 19.8263 33.8014 19.7739 33.8473 19.7267C33.9326 19.6118 33.9653 19.5369 34.06 19.4343C34.0972 19.3849 34.1387 19.3703 34.1671 19.3034C34.2072 19.2707 34.2123 19.2394 34.2436 19.1958C34.315 19.0794 34.3747 19.0554 34.4833 18.9332C34.5044 18.9099 34.4629 18.8772 34.4833 18.8772C34.6093 18.7936 34.6595 18.7339 34.7477 18.6118C34.7586 18.5979 34.7615 18.5732 34.7776 18.5579C34.8074 18.5281 34.8315 18.5267 34.8555 18.5056C34.8999 18.4569 34.8912 18.4059 34.9342 18.3718C34.9699 18.3347 35.0019 18.3419 35.0362 18.3179C35.1119 18.2583 35.0944 18.1819 35.1461 18.1063C35.2153 18.0256 35.2838 18.0038 35.3567 17.9194C35.4849 17.7907 35.5147 17.6801 35.6495 17.5507C35.7121 17.4583 35.7704 17.4285 35.8345 17.3347C35.9139 17.2707 35.9372 17.2139 35.9926 17.1521C36.088 17.0438 36.1536 17.0067 36.2315 16.9121C36.394 16.7579 36.4348 16.6292 36.6016 16.4867C36.6358 16.4372 36.6409 16.4227 36.7079 16.3805C36.7225 16.3747 36.681 16.3434 36.7079 16.3274C36.7793 16.3041 36.8318 16.227 36.9184 16.1419C37.0197 16.0365 37.0649 15.9514 37.185 15.8241C37.2419 15.7667 37.2841 15.7296 37.3409 15.6656C37.4793 15.531 37.5558 15.4525 37.6629 15.315C37.7051 15.2598 37.7001 15.2052 37.7365 15.1856C37.7736 15.1732 37.7853 15.1812 37.7911 15.1856C37.8603 15.1514 37.8545 15.0969 37.8989 15.0539C37.9448 14.9827 37.9841 14.9485 38.0315 14.8918C38.1153 14.8067 38.1837 14.7667 38.2406 14.6816C38.2406 14.6619 38.2799 14.6939 38.2974 14.6816C38.3017 14.6532 38.2675 14.6292 38.2974 14.6292C38.36 14.5965 38.4241 14.5165 38.5079 14.4387C38.5256 14.3993 38.5523 14.3647 38.5858 14.3376C38.6204 14.2833 38.6673 14.2379 38.7228 14.2052C38.838 14.0657 38.9605 13.9325 39.0899 13.8059C39.3412 13.5398 39.5794 13.2867 39.7528 13.139C39.7994 13.1034 39.7994 13.0678 39.8336 13.0343C39.9262 12.8961 40.0048 12.8379 40.1243 12.7136C40.2248 12.6212 40.2947 12.579 40.3902 12.4758C40.463 12.3979 40.4885 12.3376 40.5723 12.2641C40.616 12.2183 40.6692 12.2183 40.707 12.1587C40.7216 12.139 40.71 12.1121 40.7318 12.107C40.8068 12.0961 40.7945 12.051 40.8382 12.0256C40.9307 11.9223 40.9707 11.8518 41.0756 11.7579C41.1242 11.7283 41.1692 11.6932 41.2097 11.6532C41.3473 11.5543 41.3379 11.467 41.5258 11.3332C41.5739 11.3107 41.5797 11.2576 41.6336 11.203C41.6802 11.1747 41.732 11.1776 41.7647 11.1208C41.8245 11.0336 41.8602 10.9943 41.9235 10.9078C41.9964 10.8358 42.0364 10.8023 42.1071 10.7238C42.22 10.619 42.2994 10.5754 42.4021 10.4583C42.4997 10.3834 42.5143 10.3208 42.6381 10.2423C42.6738 10.2278 42.7146 10.1812 42.7693 10.139C42.8574 10.0663 42.8654 10.0467 42.9011 10.0052C43.0053 9.91576 43.0563 9.8583 43.1684 9.81903C43.2311 9.78776 43.2609 9.75503 43.328 9.76594C43.3782 9.77685 43.4401 9.81248 43.4336 9.8743C43.4336 9.90194 43.4088 9.90703 43.3804 9.92594C43.3739 9.96521 43.3425 9.97539 43.352 10.0052C43.3425 10.0394 43.3695 10.0525 43.3804 10.0859C43.3695 10.1281 43.3221 10.139 43.2996 10.1921C43.3083 10.2125 43.3309 10.2358 43.328 10.2692C43.3025 10.2896 43.2624 10.2692 43.2471 10.2983C43.2384 10.3208 43.2609 10.3376 43.2471 10.3521C43.2609 10.4059 43.2427 10.4299 43.2187 10.4583C43.1888 10.5267 43.1648 10.5463 43.116 10.5907C43.089 10.6445 43.0621 10.6648 43.038 10.7238C43.014 10.7456 42.9834 10.7594 42.9834 10.8038C42.9849 10.8423 43.0621 10.8619 43.038 10.9078C42.9922 10.9543 43.0023 10.9681 42.9834 11.0147C42.9484 11.0605 42.8603 11.1659 42.9011 11.1208C42.9142 11.1034 42.92 11.0888 42.931 11.0678C43.0235 10.9812 42.8115 11.2198 42.7962 11.3332C42.8006 11.3943 42.7408 11.3943 42.7175 11.4423C42.7081 11.4794 42.7146 11.5012 42.7175 11.5463C42.6891 11.6045 42.6381 11.6219 42.5871 11.6772C42.5573 11.7259 42.5354 11.755 42.507 11.811C42.4531 11.8692 42.416 11.8983 42.3723 11.9725C42.3264 12.0539 42.338 12.1216 42.295 12.2096C42.2666 12.2379 42.2397 12.2561 42.2142 12.2918C42.1472 12.427 42.1042 12.3412 42.1355 12.5027C42.129 12.5536 42.0335 12.5288 42.0051 12.635C41.9519 12.7594 41.8667 12.8874 41.8427 12.9798C41.8245 13.0183 41.8842 13.011 41.8711 13.0605C41.8288 13.1252 41.7975 13.1172 41.7647 13.1674C41.74 13.2074 41.6904 13.2983 41.6562 13.3521C41.6547 13.3943 41.7101 13.3521 41.6562 13.4612C41.5622 13.6248 41.4129 13.6474 41.3379 13.8059C41.3007 13.8874 41.2876 13.9368 41.2592 14.0168C41.2577 14.0765 41.2876 14.1245 41.2337 14.1761C41.1783 14.2292 41.1339 14.2379 41.0756 14.3078C41.0501 14.3449 41.0472 14.3747 41.0232 14.4161C40.9828 14.493 40.9468 14.5722 40.9154 14.6532C40.8593 14.7529 40.8454 14.8161 40.7857 14.9201C40.7544 14.9456 40.7398 14.9681 40.707 14.9987C40.6917 15.0227 40.6764 15.0292 40.6517 15.0539C40.6007 15.1165 40.6349 15.1601 40.5723 15.2656C40.5541 15.2707 40.6138 15.2881 40.6007 15.315C40.5169 15.3769 40.5453 15.3921 40.5213 15.451C40.4739 15.531 40.4441 15.5732 40.3902 15.6656C40.3173 15.7652 40.251 15.8118 40.1753 15.9281C40.1242 15.9949 40.0797 16.0665 40.0427 16.1419C40.0158 16.1754 40.0201 16.219 39.9903 16.2489C39.9079 16.2983 39.9094 16.2721 39.8875 16.3579C39.8825 16.3943 39.9123 16.4285 39.9123 16.4867C39.8997 16.5118 39.8913 16.5388 39.8875 16.5667C39.7994 16.6874 39.7499 16.7369 39.6734 16.8576C39.6078 16.9587 39.5838 17.0227 39.5168 17.1216C39.4512 17.2139 39.4053 17.251 39.3317 17.3347C39.2367 17.4642 39.1475 17.5979 39.0644 17.7354C39.0382 17.7907 39.0142 17.867 38.9814 17.8947C38.9078 17.9914 38.859 18.019 38.7993 18.1318C38.7883 18.1703 38.7825 18.219 38.7752 18.2387C38.674 18.3579 38.6091 18.4038 38.5305 18.531C38.4962 18.6023 38.5079 18.6663 38.4569 18.7456C38.4081 18.787 38.3542 18.787 38.2974 18.8489C38.2391 18.9201 38.2544 19.0052 38.1888 19.0903C38.151 19.1274 38.1123 19.1347 38.0854 19.1689C38.0453 19.2198 38.0395 19.2496 38.0031 19.3034C37.9718 19.379 37.9645 19.4343 37.8989 19.515C37.8902 19.5354 37.8734 19.5434 37.845 19.5652C37.7853 19.6561 37.7365 19.6925 37.6869 19.7783C37.6738 19.835 37.684 19.8736 37.6629 19.9129C37.617 19.9499 37.5777 19.9514 37.5558 19.9914C37.4852 20.0561 37.515 20.1485 37.448 20.2038C37.4123 20.2249 37.3672 20.2103 37.3708 20.2576C37.3329 20.3885 37.2776 20.4736 37.185 20.6023C37.1333 20.6852 37.0794 20.7165 37.027 20.7885C36.9884 20.8481 36.9782 20.8809 36.9454 20.9194C36.8806 21.0314 36.8179 21.0685 36.7611 21.1609C36.7079 21.2278 36.7035 21.2787 36.6555 21.347C36.6169 21.3841 36.5717 21.387 36.5229 21.4263C36.4974 21.4801 36.5105 21.5318 36.4675 21.5856C36.4063 21.6678 36.4551 21.6823 36.418 21.7434C36.394 21.7943 36.375 21.8227 36.3408 21.8779C36.308 21.8998 36.284 21.9121 36.2556 21.9565C36.2286 21.9936 36.2468 22.0445 36.2046 22.0656C36.182 22.091 36.1521 22.0729 36.1521 22.091C36.1267 22.1953 36.0817 22.2937 36.0195 22.3812C36.0225 22.4096 35.9926 22.4023 35.9926 22.435C35.9525 22.5441 35.9423 22.6081 35.86 22.7005C35.8462 22.715 35.8345 22.7223 35.8076 22.7529C35.7704 22.7958 35.7864 22.8496 35.7267 22.9136C35.7121 22.9347 35.6808 22.9376 35.6495 22.9674C35.608 23.027 35.6123 23.0758 35.5686 23.1267C35.5497 23.1725 35.5315 23.1892 35.5169 23.2321C35.4703 23.2845 35.4521 23.3187 35.412 23.3638C35.3749 23.4183 35.3392 23.4307 35.3049 23.475C35.27 23.5289 35.2795 23.5769 35.251 23.6299C35.203 23.7005 35.1556 23.7259 35.093 23.7885C35.0835 23.8198 35.0704 23.8358 35.0362 23.8714C35.015 23.9165 35.0252 23.9747 34.9866 24.0016C34.9597 24.0234 34.9342 24.0132 34.9342 24.0299C34.8999 24.1339 34.8839 24.1936 34.8016 24.2685C34.7929 24.2787 34.7732 24.2787 34.7776 24.2932C34.7404 24.3187 34.755 24.3499 34.7477 24.3769C34.7149 24.4409 34.6938 24.4816 34.6435 24.5063C34.6056 24.5274 34.5867 24.5216 34.5627 24.5332C34.5131 24.5739 34.5226 24.63 34.4833 24.6925C34.4286 24.8329 34.3478 24.8998 34.3223 25.0612C34.3121 25.0969 34.3121 25.1158 34.2968 25.1441C34.288 25.2132 34.2713 25.246 34.2436 25.3056C34.1941 25.3667 34.146 25.3856 34.0877 25.435C33.9894 25.5703 33.9908 25.6867 33.8772 25.8074C33.8554 25.8343 33.8357 25.843 33.8226 25.8612C33.7701 25.9209 33.7745 25.966 33.7417 26.022C33.7002 26.067 33.6492 26.07 33.6361 26.1296C33.615 26.171 33.6623 26.2089 33.6361 26.235C33.5895 26.3012 33.6252 26.3216 33.5866 26.3398C33.5742 26.3754 33.5582 26.3827 33.5297 26.3921C33.4926 26.438 33.4613 26.4678 33.4489 26.526C33.4569 26.5558 33.4911 26.5725 33.4758 26.6038C33.3746 26.7274 33.3374 26.7689 33.2682 26.9252C33.2209 27.0256 33.1029 27.0285 33.0533 27.1383C33.0278 27.1994 33.022 27.235 33.0002 27.2976C32.9892 27.3427 32.9834 27.3725 32.9506 27.4278C32.9251 27.4721 32.8822 27.4801 32.8428 27.5361C32.743 27.635 32.7044 27.803 32.6804 27.8554C32.6534 27.8838 32.6207 27.8794 32.6061 27.9063C32.4895 27.9718 32.5121 28.0801 32.4444 28.1994C32.3905 28.3027 32.2579 28.3841 32.2848 28.4692C32.2805 28.4932 32.2389 28.475 32.2084 28.4932C32.1523 28.5274 32.1836 28.6052 32.1253 28.6794C32.1173 28.699 32.0772 28.699 32.0772 28.7303C32.067 28.7587 32.118 28.7841 32.1013 28.8103C32.0459 28.8481 32.0204 28.8867 31.9702 28.9449C31.8653 29.0758 31.7939 29.1478 31.7043 29.2889C31.6358 29.4183 31.6671 29.5361 31.5447 29.6336C31.5295 29.6525 31.512 29.6612 31.4894 29.6881C31.3998 29.763 31.4537 29.8765 31.3575 29.9507C31.3444 29.9776 31.3087 29.9718 31.3087 30.003C31.2876 30.0387 31.3415 30.0685 31.3087 30.086C31.3029 30.0969 31.3175 30.0925 31.3087 30.086L27.3351 28.7841Z" fill="white"/><path d="M23.3599 44.3747C23.3972 44.403 23.4002 44.4271 23.3898 44.451C23.3855 44.4939 23.3468 44.507 23.3134 44.507C23.2661 44.4939 23.3344 44.3536 23.3599 44.3747ZM23.2559 44.6386C23.2603 44.6016 23.2479 44.558 23.2835 44.5624C23.3075 44.5536 23.3045 44.6046 23.3133 44.6386C23.2944 44.6685 23.29 44.7172 23.2559 44.7215C23.2288 44.6997 23.2523 44.6591 23.2559 44.6386Z" fill="white"/><path fill-rule="evenodd" clip-rule="evenodd" d="M31.3087 30.0858C31.2505 30.1563 31.2848 30.1921 31.2533 30.2459C31.2024 30.3366 31.1463 30.3623 31.0938 30.4306C31.0341 30.5288 31.0204 30.5812 30.9889 30.6692C30.9278 30.7686 30.8993 30.8182 30.8281 30.9062C30.8148 30.9448 30.7952 30.9652 30.7769 31.0146C30.6458 31.1818 30.6029 31.2946 30.5133 31.4932C30.404 31.6691 30.3582 31.7746 30.2445 31.9463C30.2311 32.0044 30.205 32.0587 30.168 32.1055C30.1372 32.1529 30.1018 32.1972 30.0624 32.2378C30.0484 32.2699 30.0216 32.2844 30.0085 32.3172C29.9902 32.3556 30.0113 32.3827 29.9814 32.4219C29.9814 32.4291 29.9545 32.4291 29.9545 32.4481C29.9248 32.4932 29.964 32.5258 29.9545 32.5572C29.9248 32.5855 29.9057 32.5885 29.8774 32.611C29.7877 32.7035 29.8066 32.8103 29.744 32.9266C29.6683 33.0145 29.6085 33.0568 29.5349 33.1367C29.4155 33.3243 29.3681 33.4676 29.2414 33.6183C29.1876 33.7068 29.1529 33.8056 29.1395 33.9084C29.1335 33.9485 29.0863 33.9353 29.0535 33.9614C28.9858 34.0182 29.0199 34.1004 28.9755 34.203C28.9442 34.2494 28.9143 34.2735 28.8699 34.336C28.8363 34.4058 28.8204 34.4568 28.7636 34.5209C28.7468 34.5695 28.725 34.5877 28.7126 34.6263C28.5982 34.7739 28.5545 34.9572 28.5021 35.0553C28.4846 35.0838 28.4531 35.0932 28.419 35.1332C28.3084 35.2597 28.368 35.4159 28.2369 35.5294C28.2159 35.5652 28.1947 35.5748 28.1575 35.6088C28.1123 35.6654 28.0762 35.7287 28.0505 35.7964C28.0206 35.872 28.0381 35.9317 27.9965 35.9827C27.9739 36.0123 27.9587 36.0183 27.9426 36.0291C27.8959 36.1005 27.901 36.1485 27.8647 36.2211C27.8545 36.248 27.8262 36.2358 27.8087 36.248C27.7708 36.2735 27.7874 36.3178 27.7605 36.3564C27.7307 36.3892 27.6891 36.3805 27.6783 36.4044C27.6608 36.4459 27.6753 36.4583 27.6783 36.4866C27.6608 36.5222 27.6084 36.5238 27.6265 36.5651C27.6229 36.5775 27.6578 36.5819 27.6542 36.5906C27.5828 36.7222 27.6038 36.7529 27.5201 36.8336C27.4896 36.844 27.4623 36.862 27.4407 36.8859C27.3993 36.9172 27.389 36.9514 27.3634 36.9914C27.3291 37.0391 27.3018 37.0915 27.2827 37.1471C27.2681 37.1928 27.287 37.23 27.2542 37.2569C27.2397 37.2837 27.2141 37.2736 27.204 37.3076C27.1376 37.4415 27.0977 37.4852 27.0181 37.6044C26.9098 37.8131 26.8369 37.9201 26.7262 38.1332C26.6199 38.3053 26.5222 38.4824 26.4334 38.664C26.3007 38.91 26.2257 39.0466 26.1143 39.299C25.9853 39.534 25.9183 39.7113 25.8003 39.9099C25.7828 39.9483 25.7456 39.9483 25.7187 39.9913C25.7106 40.0365 25.7348 40.0859 25.7187 40.1259C25.6561 40.2597 25.5556 40.4242 25.4543 40.6292C25.3939 40.7122 25.3406 40.8 25.2947 40.8918C25.1993 41.0663 25.1542 41.2197 25.0872 41.3732C25.0769 41.3849 25.0435 41.3702 25.0318 41.3732C24.9837 41.4226 25.0063 41.4744 24.9793 41.5295C24.9793 41.5805 24.9692 41.6161 24.9479 41.6619C24.9182 41.7011 24.8949 41.7142 24.8709 41.747C24.7185 41.9303 24.744 42.0961 24.6092 42.2735C24.5897 42.3005 24.5605 42.3063 24.5524 42.3281C24.5393 42.3674 24.5496 42.3862 24.5285 42.4117C24.5255 42.467 24.4708 42.5238 24.4753 42.5121C24.3477 42.7826 24.2377 43.1331 24.157 43.176C24.0783 43.2495 24.0374 43.416 23.9973 43.4459C23.923 43.4626 23.8837 43.5419 23.8423 43.6326C23.693 43.8815 23.5108 44.2169 23.4692 44.2706C23.3673 44.3492 23.3302 44.3078 23.2559 44.3746C23.2106 44.4343 23.2348 44.5207 23.151 44.5623C23.0855 44.6015 23.0657 44.6925 23.0468 44.7965C23.057 44.7965 22.9514 44.9245 22.8865 45.0124C22.8568 45.0875 22.8463 45.139 22.8064 45.1971C22.7655 45.2612 22.754 45.3317 22.7029 45.3565C22.6213 45.3579 22.6134 45.3891 22.5136 45.4357C22.4779 45.443 22.4612 45.3673 22.4363 45.3847C22.3197 45.4954 22.3612 45.576 22.2521 45.6998C22.2091 45.7382 22.2003 45.771 22.169 45.811C22.1283 45.9056 22.1405 45.9768 22.0655 46.0466C22.0584 46.0763 22.0285 46.0452 22.0124 46.0197C21.9001 45.9738 22.0255 45.8502 22.0897 45.7565C22.1223 45.6727 22.0582 45.619 22.0655 45.5418C22.0853 45.4357 22.161 45.3914 22.169 45.2779C22.1807 45.2329 22.2346 45.1767 22.169 45.1447C22.1064 45.1186 22.0059 45.1645 21.9316 45.2226C21.8762 45.2779 21.8587 45.3179 21.8267 45.3849C21.7407 45.5165 21.721 45.6089 21.6671 45.7565C21.6286 45.8502 21.6314 45.9143 21.5884 45.9913C21.5237 46.056 21.464 46.056 21.4014 46.1259C21.3328 46.2138 21.3793 46.3222 21.297 46.4161C21.2629 46.4488 21.2344 46.4669 21.1893 46.4997C21.1521 46.5339 21.1194 46.5491 21.0851 46.6045C21.0508 46.6502 21.0582 46.6917 21.0297 46.765C21.0092 46.8196 20.9834 46.8721 20.9526 46.9216C20.9176 46.9928 20.9299 47.0874 20.8447 47.1077C20.8031 47.1304 20.7748 47.1019 20.7376 47.1077C20.6854 47.1301 20.6403 47.1663 20.6073 47.2124C20.4703 47.3362 20.5075 47.4822 20.4238 47.64C20.3835 47.7055 20.3522 47.728 20.3166 47.7994C20.2897 47.8575 20.3043 47.9113 20.2627 47.9841C20.2328 48.0109 20.2015 48.0169 20.1578 48.0378C20.133 48.0808 20.125 48.1164 20.0776 48.1448C20.0355 48.1811 19.9807 48.1687 19.9444 48.2269C19.9042 48.2482 19.9147 48.2822 19.8897 48.3333C19.8589 48.3705 19.8248 48.4048 19.7877 48.4358C19.7594 48.4786 19.7507 48.5557 19.7077 48.5419C19.6522 48.5309 19.6465 48.4838 19.6283 48.4358C19.6327 48.3862 19.6493 48.3731 19.6552 48.3332C19.6709 48.2619 19.6789 48.1893 19.6792 48.1164C19.6697 48.0169 19.7033 47.9951 19.7077 47.9055C19.7105 47.8437 19.7594 47.5419 19.7594 47.4822C19.8133 47.2082 19.825 47.1375 19.8643 46.7893C19.9524 46.291 19.9596 46.3943 20.0281 46.1543C20.0281 46.1047 19.9998 46.0765 19.9998 46.0466C20.0092 45.9541 20.0624 45.923 20.0776 45.8351C20.1192 45.7529 20.1134 45.6954 20.1286 45.5951C20.1549 45.4772 20.1549 45.3987 20.1846 45.2779C20.2073 45.1782 20.2496 45.133 20.2627 45.0379C20.2715 44.9842 20.2627 44.9557 20.2627 44.9056C20.2802 44.8422 20.3012 44.8124 20.3166 44.7426C20.3311 44.6787 20.337 44.6314 20.3451 44.5623C20.3734 44.4596 20.3734 44.4474 20.4238 44.2924C20.4316 44.2764 20.4164 44.2628 20.4238 44.2394C20.4208 44.1943 20.4703 44.0793 20.4746 44.1376C20.4675 44.1498 20.4624 44.1004 20.4746 44.0793C20.4645 44.0409 20.5015 44.035 20.5015 44.0008C20.5286 43.9412 20.5075 43.9142 20.5286 43.8678C20.5286 43.7993 20.5657 43.7753 20.5802 43.71C20.5855 43.6925 20.5839 43.6829 20.5802 43.656C20.6117 43.5449 20.6269 43.4787 20.6612 43.363C20.7063 43.2328 20.7136 43.1884 20.7909 43.0453C20.8206 43.0095 20.7879 42.9912 20.7909 42.9645C20.7953 42.9186 20.8162 42.8961 20.8206 42.8605C20.8286 42.8531 20.9176 42.6545 20.9526 42.5121C20.946 42.4865 20.946 42.4598 20.9526 42.4342C20.9867 42.2153 21.0778 42.1078 21.139 41.9041C21.2148 41.6917 21.2461 41.5695 21.297 41.3433C21.3881 41.0764 21.4224 40.9099 21.536 40.6292C21.6045 40.4386 21.6701 40.336 21.7465 40.1499C21.9213 39.7382 22.0015 39.5012 22.1435 39.0903C22.2376 38.8232 22.276 38.7593 22.3825 38.3942C22.3897 38.3616 22.4363 38.3673 22.464 38.3462C22.4925 38.2938 22.5077 38.1572 22.5136 38.2074C22.5063 38.2394 22.475 38.1572 22.4881 38.1332C22.5587 38.032 22.5944 37.9543 22.6484 37.8409C22.7736 37.6073 22.8253 37.4714 22.939 37.23C23.1138 36.8132 23.2209 36.5775 23.4154 36.1644C23.5675 35.8066 23.65 35.603 23.8122 35.2655C23.9792 34.9274 24.087 34.7499 24.2377 34.4146C24.4045 34.0932 24.6348 33.6909 24.7141 33.4546C24.7484 33.3964 24.7185 33.4052 24.739 33.3528C24.7346 33.3339 24.7783 33.3593 24.7928 33.3243C24.8439 33.2772 24.9064 33.107 24.9793 32.952C25.0828 32.7492 25.1542 32.6379 25.2664 32.4219C25.5183 31.9608 25.7442 31.5702 25.9036 31.2291C25.9036 31.2008 25.9379 31.2204 25.9561 31.2008C26.0451 31.0568 26.1376 30.84 26.2243 30.6423C26.2323 30.6 26.2935 30.6283 26.3007 30.5899C26.3306 30.5142 26.3517 30.4007 26.4334 30.2996C26.4631 30.2546 26.4959 30.2459 26.5397 30.1878C26.5951 30.1164 26.5753 30.0357 26.6498 29.9506C26.6634 29.9296 26.689 29.9223 26.6991 29.8982C26.7531 29.8371 26.8369 29.5943 26.965 29.395C26.9919 29.3709 27.0204 29.3782 27.0437 29.3709C27.1515 29.1963 27.2397 28.9637 27.3351 28.7841C27.3468 28.787 27.3351 28.7659 27.3351 28.7556L31.3087 30.0858Z" fill="white"/></g><defs><clipPath id="clip0_1735_13612"><rect width="43.7062" height="48" fill="white" transform="translate(0.0500031 0.543396)"/></clipPath></defs></svg>